<?xml version="1.0" encoding="utf-8" ?>
<svg xmlns="http://www.w3.org/2000/svg" xmlns:xlink="http://www.w3.org/1999/xlink" width="1024" height="1024"
    viewBox="250 250 524 524">
    <path fill="white"
        d="M509.947 372.659L509.948 297.412C509.948 287.741 509.279 270.46 510.015 261.614C511.152 260.679 513.395 260.804 515.006 260.715C563.598 257.377 615.198 279.623 655.72 304.206C632.957 299.784 609.493 300.516 587.051 306.347C557.255 315.138 530.134 336.028 515.192 363.444C513.586 366.39 512.066 369.438 510.228 372.238L509.947 372.659Z" />
    <path fill="white"
        d="M382.38 505.547L381.995 505.821C381.547 504.843 381.847 480.509 381.849 477.392L381.917 417.409C381.936 406.992 381.665 394.663 382.153 384.355C382.455 377.66 383.31 371.001 384.71 364.446C388.249 347.619 394.717 333.331 404.4 319.182C424.972 289.73 456.337 269.588 491.678 263.134C492.14 263.136 491.831 263.098 492.527 263.521C492.972 267.229 492.66 274.132 492.665 278.144L492.746 307.322C492.828 335.834 493.573 367.52 492.64 395.773L421.188 466.82C408.619 479.368 394.407 492.776 382.38 505.547Z" />
    <path fill="white"
        d="M261.654 516.996C258.145 463.716 269.598 418.342 300.828 374.404C300.916 375.401 300.975 375.139 300.794 375.981C296.096 397.942 296.997 421.014 304.152 442.391C312.625 468.501 330.131 490.733 353.526 505.092C361.429 509.892 368.322 512.657 376.467 516.719C364.063 516.943 351.656 517.044 339.25 517.022L261.654 516.996Z" />
    <path fill="white"
        d="M624.109 489.331C617.152 481.586 605.409 470.618 597.803 463.019L545.089 410.315C538.045 403.289 522.388 388.683 516.758 381.464L594.356 381.583C612.122 381.588 638.991 380.631 655.856 383.966C672.011 387.274 687.386 393.637 701.154 402.713C732.201 422.787 751.813 453.518 759.406 489.427C714.388 489.935 669.126 489.176 624.109 489.331Z" />
    <path fill="white"
        d="M723.196 648.541C723.685 646.536 724.138 644.522 724.555 642.501C735.983 585.13 701.826 530.307 651.024 507.839C650.768 507.459 650.513 507.08 650.258 506.7C662.701 506.182 679.322 506.769 692.055 506.842C715.51 506.978 738.966 506.995 762.421 506.891C766.507 550.272 757.486 586.638 737.469 624.883C733.244 633.078 728.475 640.982 723.196 648.541Z" />
    <path fill="white"
        d="M530.219 628.779C567.614 591.627 606.136 553.998 643.002 516.431C643.944 517.79 643.61 524.934 643.605 526.977L643.527 552.765L643.505 608.205C643.503 617.792 643.739 628.475 643.383 637.922C643.093 644.602 642.326 651.253 641.09 657.825C637.986 674.031 631.608 689.433 622.345 703.089C600.334 736.036 568.431 752.524 530.517 760.18C530.763 733.078 529.95 705.813 530.268 678.681C530.461 662.132 530.417 645.33 530.219 628.779Z" />
    <path fill="white"
        d="M264.379 534.453C284.672 533.671 309.774 534.283 330.425 534.252L398.998 534.353C413.701 548.317 428.696 563.857 443.044 578.224C464.394 599.272 485.573 620.492 506.579 641.883C501.235 641.424 490.09 641.821 484.241 641.838L439.987 641.938L405.718 641.902C375.142 641.868 353.207 640.604 325.887 623.793C292.439 603.211 273.119 572.105 264.379 534.453Z" />
    <path fill="white"
        d="M368.046 718.936C376.094 720.556 383.459 721.858 391.668 722.471C444.348 726.405 489.297 700.671 513.339 653.883C514.001 660.245 513.478 680.343 513.471 687.507L513.129 761.337C471.198 763.872 429.417 754.34 392.734 733.869C385.204 729.869 374.828 723.908 368.046 718.936Z" />
</svg>